<?xml version="1.0" encoding="UTF-8" standalone="no"?>
<!-- Created with Inkscape (http://www.inkscape.org/) -->

<svg
   xmlns:dc="http://purl.org/dc/elements/1.1/"
   xmlns:cc="http://creativecommons.org/ns#"
   xmlns:rdf="http://www.w3.org/1999/02/22-rdf-syntax-ns#"
   xmlns:svg="http://www.w3.org/2000/svg"
   xmlns="http://www.w3.org/2000/svg"
   xmlns:sodipodi="http://sodipodi.sourceforge.net/DTD/sodipodi-0.dtd"
   xmlns:inkscape="http://www.inkscape.org/namespaces/inkscape"
   version="1.1"
   id="svg2"
   xml:space="preserve"
   width="468.67319"
   height="178.9792"
   viewBox="0 0 468.67318 178.9792"
   sodipodi:docname="docker.svg"
   inkscape:version="0.92.2 (5c3e80d, 2017-08-06)"><metadata
     id="metadata8"><rdf:RDF><cc:Work
         rdf:about=""><dc:format>image/svg+xml</dc:format><dc:type
           rdf:resource="http://purl.org/dc/dcmitype/StillImage" /><dc:title></dc:title></cc:Work></rdf:RDF></metadata><defs
     id="defs6" /><sodipodi:namedview
     pagecolor="#ffffff"
     bordercolor="#666666"
     borderopacity="1"
     objecttolerance="10"
     gridtolerance="10"
     guidetolerance="10"
     inkscape:pageopacity="0"
     inkscape:pageshadow="2"
     inkscape:window-width="1273"
     inkscape:window-height="844"
     id="namedview4"
     showgrid="false"
     inkscape:showpageshadow="false"
     inkscape:measure-start="255.105,53.6488"
     inkscape:measure-end="256.2,13.1385"
     fit-margin-top="40"
     fit-margin-left="40"
     fit-margin-bottom="40"
     fit-margin-right="40"
     inkscape:zoom="0.91334776"
     inkscape:cx="124.01216"
     inkscape:cy="82.389253"
     inkscape:window-x="2841"
     inkscape:window-y="370"
     inkscape:window-maximized="0"
     inkscape:current-layer="g10" /><g
     id="g10"
     inkscape:groupmode="layer"
     inkscape:label="ink_ext_XXXXXX"
     transform="matrix(1.3333333,0,0,-1.3333333,39.999876,138.9792)"><g
       id="g12"
       transform="scale(0.1)"><path
         d="M 193.496,482.344 H 83.4961 v -100 H 193.496 v 100"
         style="fill:#099cec;fill-opacity:1;fill-rule:evenodd;stroke:none"
         id="path14"
         inkscape:connector-curvature="0" /><path
         d="m 323.496,482.344 h -110 v -100 h 110 v 100"
         style="fill:#099cec;fill-opacity:1;fill-rule:evenodd;stroke:none"
         id="path16"
         inkscape:connector-curvature="0" /><path
         d="m 453.496,482.344 h -110 v -100 h 110 v 100"
         style="fill:#099cec;fill-opacity:1;fill-rule:evenodd;stroke:none"
         id="path18"
         inkscape:connector-curvature="0" /><path
         d="m 583.496,482.344 h -110 v -100 h 110 v 100"
         style="fill:#099cec;fill-opacity:1;fill-rule:evenodd;stroke:none"
         id="path20"
         inkscape:connector-curvature="0" /><path
         d="m 713.496,482.344 h -110 v -100 h 110 v 100"
         style="fill:#099cec;fill-opacity:1;fill-rule:evenodd;stroke:none"
         id="path22"
         inkscape:connector-curvature="0" /><path
         d="m 323.496,602.344 h -110 v -100 h 110 v 100"
         style="fill:#099cec;fill-opacity:1;fill-rule:evenodd;stroke:none"
         id="path24"
         inkscape:connector-curvature="0" /><path
         d="m 453.496,602.344 h -110 v -100 h 110 v 100"
         style="fill:#099cec;fill-opacity:1;fill-rule:evenodd;stroke:none"
         id="path26"
         inkscape:connector-curvature="0" /><path
         d="m 583.496,602.344 h -110 v -100 h 110 v 100"
         style="fill:#099cec;fill-opacity:1;fill-rule:evenodd;stroke:none"
         id="path28"
         inkscape:connector-curvature="0" /><path
         d="m 583.496,722.344 h -110 v -100 h 110 v 100"
         style="fill:#099cec;fill-opacity:1;fill-rule:evenodd;stroke:none"
         id="path30"
         inkscape:connector-curvature="0" /><path
         d="m 1041.13,451.469 c -22.57,15.195 -81.892,21.683 -125.017,10.066 -2.312,42.961 -24.472,79.168 -65,110.738 l -15,10.071 -10,-15.106 c -19.648,-29.82 -27.929,-69.566 -25,-105.703 2.317,-22.254 10.059,-47.277 25,-65.433 -11.445,-8.895 -47.031,-26.082 -95,-25.168 H 16.1133 C 3.39844,295.43 25.1758,8.51563 356.113,8.51563 c 245.696,0 447.571,110.48837 540,342.28537 30.418,-0.5 110.717,-5.449 149.997,70.469 0.96,1.277 10,20.136 10,20.136 l -14.98,10.063"
         style="fill:#099cec;fill-opacity:1;fill-rule:evenodd;stroke:none"
         id="path32"
         inkscape:connector-curvature="0" /><path
         d="M 280.281,144.832 C 198.699,116.531 110.859,112.441 92.5,113.262 153.699,62.2266 262.742,-34.082 442.5,20.9063 409.668,29.8242 332.234,59.668 280.281,144.832"
         style="fill:#ffffff;fill-opacity:1;fill-rule:evenodd;stroke:none"
         id="path34"
         inkscape:connector-curvature="0" /><path
         d="m 271.172,162.449 c -39.246,-22.402 -84.746,-34.98 -132.996,-34.98 -24.453,0 -48.1369,3.254 -70.676,9.336 14.2773,-23.985 14.2773,-23.985 14.2773,-23.985 18.2427,-3.593 37.0897,-5.488 56.3987,-5.488 52,0 100.496,13.594 142.754,37.5 -3.508,5.793 -6.758,11.574 -9.758,17.617"
         style="fill:#026fb6;fill-opacity:1;fill-rule:evenodd;stroke:none"
         id="path36"
         inkscape:connector-curvature="0" /><path
         d="m 347.266,175.508 c 19.199,0 34.765,15.664 34.765,35 0,19.324 -15.566,35 -34.765,35 -19.2,0 -34.766,-15.676 -34.766,-35 0,-19.336 15.566,-35 34.766,-35"
         style="fill:#ffffff;fill-opacity:1;fill-rule:evenodd;stroke:none"
         id="path38"
         inkscape:connector-curvature="0" /><path
         d="m 352.5,220.332 c 0,3.211 1.582,5.945 3.906,7.781 -2.722,1.418 -5.761,2.285 -9.043,2.285 -10.965,0 -19.863,-8.953 -19.863,-20 0,-11.043 8.898,-20 19.863,-20 10.977,0 19.871,8.957 19.871,20 l -0.117,1.153 c -1.394,-0.75 -2.918,-1.278 -4.617,-1.278 -5.527,0 -10,4.5 -10,10.059"
         style="fill:#4d5c64;fill-opacity:1;fill-rule:nonzero;stroke:none"
         id="path40"
         inkscape:connector-curvature="0" /><path
         d="m 1038.23,453.266 c -15.44,8.777 -43.613,14.218 -72.699,14.218 -16.937,0 -34.183,-1.843 -49.418,-5.949 -0.05,0.91 -0.105,1.817 -0.172,2.719 13.723,3.625 29.477,5.242 45.2,5.242 31.289,0 62.439,-6.418 77.089,-16.23"
         style="fill:#f5f5f5;fill-opacity:1;fill-rule:nonzero;stroke:none"
         id="path42"
         inkscape:connector-curvature="0" /><path
         d="m 405.848,11.5273 c 11.879,2.4336 24.09,5.5352 36.652,9.379 -15.375,4.1757 -40.535,12.9453 -68.277,29.832 228.574,5.5703 395.941,122.8827 529.722,399.7927 l 9.18,12.942 c 0.93,0.269 1.867,0.527 2.816,0.781 0.067,-0.902 0.122,-1.809 0.172,-2.719 15.235,4.106 32.481,5.949 49.418,5.949 29.086,0 57.259,-5.441 72.699,-14.218 0,-0.008 0.01,-0.012 0.02,-0.02 l 15.11,-10.238 -7.61,-16.102 c -34.68,-70.289 -109.98,-75.574 -145.234,-75.574 -2.864,0 -5.469,0.035 -7.762,0.074 C 806.324,137.387 626.793,27.0117 405.848,11.5273"
         style="fill:#f5f5f5;fill-opacity:1;fill-rule:nonzero;stroke:none"
         id="path44"
         inkscape:connector-curvature="0" /><path
         d="m 405.848,11.5273 c 11.879,2.4336 24.09,5.5352 36.652,9.379 -15.375,4.1757 -40.535,12.9453 -68.277,29.832 228.574,5.5703 395.941,122.8827 529.722,399.7927 l 9.18,12.942 c 0.93,0.269 1.867,0.527 2.816,0.781 0.067,-0.902 0.122,-1.809 0.172,-2.719 15.235,4.106 32.481,5.949 49.418,5.949 29.086,0 57.259,-5.441 72.699,-14.218 0,-0.008 0.01,-0.012 0.02,-0.02 l 15.11,-10.238 -7.61,-16.102 c -34.68,-70.289 -109.98,-75.574 -145.234,-75.574 -2.864,0 -5.469,0.035 -7.762,0.074 C 806.324,137.387 626.793,27.0117 405.848,11.5273"
         style="fill:#0996e3;fill-opacity:1;fill-rule:nonzero;stroke:none"
         id="path46"
         inkscape:connector-curvature="0" /><path
         d="M 233.168,23.3672 C 165.051,40.9258 116.637,73.7734 82.3906,112.699 c 3.4532,-0.672 6.9297,-1.281 10.4219,-1.832 30.6215,-34.7732 72.2895,-64.5272 128.5625,-82.8475 3.859,-1.6132 7.793,-3.1679 11.793,-4.6523"
         style="fill:#f5f5f5;fill-opacity:1;fill-rule:nonzero;stroke:none"
         id="path48"
         inkscape:connector-curvature="0" /><path
         d="m 221.375,28.0195 c -56.273,18.3203 -97.941,48.0743 -128.5625,82.8475 1.0391,-0.164 2.0781,-0.32 3.1211,-0.472 C 125.949,85.3047 166.945,50.7461 221.375,28.0195"
         style="fill:#f5f5f5;fill-opacity:1;fill-rule:nonzero;stroke:none"
         id="path50"
         inkscape:connector-curvature="0" /><path
         d="m 221.375,28.0195 c -56.273,18.3203 -97.941,48.0743 -128.5625,82.8475 1.0391,-0.164 2.0781,-0.32 3.1211,-0.472 C 125.949,85.3047 166.945,50.7461 221.375,28.0195"
         style="fill:#0996e3;fill-opacity:1;fill-rule:nonzero;stroke:none"
         id="path52"
         inkscape:connector-curvature="0" /><path
         d="M 80.6797,114.668 C 5.63281,201.629 0.0664063,317.922 3.125,362.797 H 14.9805 C 9.6875,316.422 16.25,216.98 73.6523,135.223 c -2.0625,0.504 -4.1093,1.031 -6.1523,1.582 8.2031,-13.782 11.6953,-19.645 13.1797,-22.137"
         style="fill:#f5f5f5;fill-opacity:1;fill-rule:nonzero;stroke:none"
         id="path54"
         inkscape:connector-curvature="0" /><path
         d="m 132.586,127.527 c -20.273,0.411 -39.9883,3.059 -58.9337,7.696 C 16.25,216.98 9.6875,316.422 14.9805,362.797 H 43.125 c 9.4648,-96.567 31.918,-179.301 89.461,-235.27"
         style="fill:#f5f5f5;fill-opacity:1;fill-rule:nonzero;stroke:none"
         id="path56"
         inkscape:connector-curvature="0" /><path
         d="m 132.586,127.527 c -20.273,0.411 -39.9883,3.059 -58.9337,7.696 C 16.25,216.98 9.6875,316.422 14.9805,362.797 H 43.125 c 9.4648,-96.567 31.918,-179.301 89.461,-235.27"
         style="fill:#0996e3;fill-opacity:1;fill-rule:nonzero;stroke:none"
         id="path58"
         inkscape:connector-curvature="0" /><path
         d="m 350.754,9.62891 c -44.578,0 -83.547,4.96089 -117.586,13.73829 -4,1.4844 -7.934,3.0391 -11.793,4.6523 -54.43,22.7266 -95.426,57.2852 -125.4414,82.3755 13.7854,-2.012 27.8864,-3.063 42.2424,-3.063 5.922,0 11.797,0.176 17.625,0.523 49.023,-36.1089 118.527,-56.8667 217.324,-57.1402 0.363,0.0079 0.734,0.0157 1.098,0.0235 27.742,-16.8867 52.902,-25.6563 68.277,-29.832 -12.562,-3.8438 -24.773,-6.9454 -36.652,-9.379 -18.09,-1.2656 -36.477,-1.89839 -55.094,-1.89839"
         style="fill:#f5f5f5;fill-opacity:1;fill-rule:nonzero;stroke:none"
         id="path60"
         inkscape:connector-curvature="0" /><path
         d="m 350.754,9.62891 c -44.578,0 -83.547,4.96089 -117.586,13.73829 -4,1.4844 -7.934,3.0391 -11.793,4.6523 -54.43,22.7266 -95.426,57.2852 -125.4414,82.3755 13.7854,-2.012 27.8864,-3.063 42.2424,-3.063 5.922,0 11.797,0.176 17.625,0.523 49.023,-36.1089 118.527,-56.8667 217.324,-57.1402 0.363,0.0079 0.734,0.0157 1.098,0.0235 27.742,-16.8867 52.902,-25.6563 68.277,-29.832 -12.562,-3.8438 -24.773,-6.9454 -36.652,-9.379 -18.09,-1.2656 -36.477,-1.89839 -55.094,-1.89839"
         style="fill:#f5f5f5;fill-opacity:1;fill-rule:nonzero;stroke:none"
         id="path62"
         inkscape:connector-curvature="0" /><path
         d="m 138.176,107.332 c -14.356,0 -28.457,1.051 -42.2424,3.063 -1.043,0.152 -2.082,0.308 -3.1211,0.472 -3.4922,0.551 -6.9687,1.16 -10.4219,1.832 -0.5781,0.66 -1.1406,1.309 -1.7109,1.969 -1.4844,2.492 -4.9766,8.355 -13.1797,22.137 2.043,-0.551 4.0898,-1.078 6.1523,-1.582 18.9454,-4.637 38.6607,-7.285 58.9337,-7.696 7.18,-6.984 14.898,-13.543 23.215,-19.672 -5.828,-0.347 -11.703,-0.523 -17.625,-0.523"
         style="fill:#f5f5f5;fill-opacity:1;fill-rule:nonzero;stroke:none"
         id="path64"
         inkscape:connector-curvature="0" /><path
         d="m 138.176,107.332 c -14.356,0 -28.457,1.051 -42.2424,3.063 -1.043,0.152 -2.082,0.308 -3.1211,0.472 -3.4922,0.551 -6.9687,1.16 -10.4219,1.832 -0.5781,0.66 -1.1406,1.309 -1.7109,1.969 -1.4844,2.492 -4.9766,8.355 -13.1797,22.137 2.043,-0.551 4.0898,-1.078 6.1523,-1.582 18.9454,-4.637 38.6607,-7.285 58.9337,-7.696 7.18,-6.984 14.898,-13.543 23.215,-19.672 -5.828,-0.347 -11.703,-0.523 -17.625,-0.523"
         style="fill:#026baf;fill-opacity:1;fill-rule:nonzero;stroke:none"
         id="path66"
         inkscape:connector-curvature="0" /><path
         d="m 103.496,402.344 h 10 v 60 h -10 v -60"
         style="fill:#066da5;fill-opacity:1;fill-rule:nonzero;stroke:none"
         id="path68"
         inkscape:connector-curvature="0" /><path
         d="m 133.496,402.344 h 10 v 60 h -10 v -60"
         style="fill:#066da5;fill-opacity:1;fill-rule:nonzero;stroke:none"
         id="path70"
         inkscape:connector-curvature="0" /><path
         d="m 163.496,402.344 h 10 v 60 h -10 v -60"
         style="fill:#066da5;fill-opacity:1;fill-rule:nonzero;stroke:none"
         id="path72"
         inkscape:connector-curvature="0" /><path
         d="m 233.496,402.344 h 10 v 60 h -10 v -60"
         style="fill:#066da5;fill-opacity:1;fill-rule:nonzero;stroke:none"
         id="path74"
         inkscape:connector-curvature="0" /><path
         d="m 263.496,402.344 h 10 v 60 h -10 v -60"
         style="fill:#066da5;fill-opacity:1;fill-rule:nonzero;stroke:none"
         id="path76"
         inkscape:connector-curvature="0" /><path
         d="m 293.496,402.344 h 10 v 60 h -10 v -60"
         style="fill:#066da5;fill-opacity:1;fill-rule:nonzero;stroke:none"
         id="path78"
         inkscape:connector-curvature="0" /><path
         d="m 363.496,402.344 h 10 v 60 h -10 v -60"
         style="fill:#066da5;fill-opacity:1;fill-rule:nonzero;stroke:none"
         id="path80"
         inkscape:connector-curvature="0" /><path
         d="m 393.496,402.344 h 10 v 60 h -10 v -60"
         style="fill:#066da5;fill-opacity:1;fill-rule:nonzero;stroke:none"
         id="path82"
         inkscape:connector-curvature="0" /><path
         d="m 423.496,402.344 h 10 v 60 h -10 v -60"
         style="fill:#066da5;fill-opacity:1;fill-rule:nonzero;stroke:none"
         id="path84"
         inkscape:connector-curvature="0" /><path
         d="m 493.496,402.344 h 10 v 60 h -10 v -60"
         style="fill:#066da5;fill-opacity:1;fill-rule:nonzero;stroke:none"
         id="path86"
         inkscape:connector-curvature="0" /><path
         d="m 523.496,402.344 h 10 v 60 h -10 v -60"
         style="fill:#066da5;fill-opacity:1;fill-rule:nonzero;stroke:none"
         id="path88"
         inkscape:connector-curvature="0" /><path
         d="m 553.496,402.344 h 10 v 60 h -10 v -60"
         style="fill:#066da5;fill-opacity:1;fill-rule:nonzero;stroke:none"
         id="path90"
         inkscape:connector-curvature="0" /><path
         d="m 623.496,402.344 h 10 v 60 h -10 v -60"
         style="fill:#066da5;fill-opacity:1;fill-rule:nonzero;stroke:none"
         id="path92"
         inkscape:connector-curvature="0" /><path
         d="m 653.496,402.344 h 10 v 60 h -10 v -60"
         style="fill:#066da5;fill-opacity:1;fill-rule:nonzero;stroke:none"
         id="path94"
         inkscape:connector-curvature="0" /><path
         d="m 683.496,402.344 h 10 v 60 h -10 v -60"
         style="fill:#066da5;fill-opacity:1;fill-rule:nonzero;stroke:none"
         id="path96"
         inkscape:connector-curvature="0" /><path
         d="m 263.496,522.344 h 10 v 60 h -10 v -60"
         style="fill:#066da5;fill-opacity:1;fill-rule:nonzero;stroke:none"
         id="path98"
         inkscape:connector-curvature="0" /><path
         d="m 293.496,522.344 h 10 v 60 h -10 v -60"
         style="fill:#066da5;fill-opacity:1;fill-rule:nonzero;stroke:none"
         id="path100"
         inkscape:connector-curvature="0" /><path
         d="m 363.496,522.344 h 10 v 60 h -10 v -60"
         style="fill:#066da5;fill-opacity:1;fill-rule:nonzero;stroke:none"
         id="path102"
         inkscape:connector-curvature="0" /><path
         d="m 393.496,522.344 h 10 v 60 h -10 v -60"
         style="fill:#066da5;fill-opacity:1;fill-rule:nonzero;stroke:none"
         id="path104"
         inkscape:connector-curvature="0" /><path
         d="m 423.496,522.344 h 10 v 60 h -10 v -60"
         style="fill:#066da5;fill-opacity:1;fill-rule:nonzero;stroke:none"
         id="path106"
         inkscape:connector-curvature="0" /><path
         d="m 493.496,522.344 h 10 v 60 h -10 v -60"
         style="fill:#066da5;fill-opacity:1;fill-rule:nonzero;stroke:none"
         id="path108"
         inkscape:connector-curvature="0" /><path
         d="m 523.496,522.344 h 10 v 60 h -10 v -60"
         style="fill:#066da5;fill-opacity:1;fill-rule:nonzero;stroke:none"
         id="path110"
         inkscape:connector-curvature="0" /><path
         d="m 553.496,522.344 h 10 v 60 h -10 v -60"
         style="fill:#066da5;fill-opacity:1;fill-rule:nonzero;stroke:none"
         id="path112"
         inkscape:connector-curvature="0" /><path
         d="m 523.496,642.344 h 10 v 60 h -10 v -60"
         style="fill:#066da5;fill-opacity:1;fill-rule:nonzero;stroke:none"
         id="path114"
         inkscape:connector-curvature="0" /><path
         d="m 493.496,642.344 h 10 v 60 h -10 v -60"
         style="fill:#066da5;fill-opacity:1;fill-rule:nonzero;stroke:none"
         id="path116"
         inkscape:connector-curvature="0" /><path
         d="m 553.496,642.344 h 10 v 60 h -10 v -60"
         style="fill:#066da5;fill-opacity:1;fill-rule:nonzero;stroke:none"
         id="path118"
         inkscape:connector-curvature="0" /><path
         d="m 233.496,522.344 h 10 v 60 h -10 v -60"
         style="fill:#066da5;fill-opacity:1;fill-rule:nonzero;stroke:none"
         id="path120"
         inkscape:connector-curvature="0" /><path
         d="m 1038.61,437 c -1.23,-2.523 -2.28,-4.652 -3.09,-6.25 -0.44,-0.863 -0.79,-1.551 -1.76,-3.281 -14.84,-28.68 -36.651,-46.633 -64.295,-56.356 -21.899,-7.695 -41.731,-9.414 -71.477,-8.8 -0.293,0.007 -2.16,0.046 -5.195,0.105 l -6.887,0.109 -2.554,-6.429 C 795.859,136.719 604.824,20.1367 352.629,20.1367 208.457,20.1367 114.375,74.7344 62.4805,167.891 42.4531,203.828 29.7188,244.168 23.75,285.453 c -4.1406,28.637 -4.707,56.426 -2.4219,76.965 h 42.168 v -0.074 h 129.9999 20 110 20 110 20 110 20 130 v 0.195 c 39.617,0.445 76.652,12.699 95.242,27.145 l 8.196,6.367 -6.614,8.023 c -12.379,15.047 -20.359,37.086 -22.754,60.063 -2.832,35.047 5.664,72.172 23.391,99.09 l 4.441,6.703 6.387,-4.282 c 38.82,-30.332 58.742,-64.019 60.852,-103.109 l 0.676,-12.383 11.902,3.207 c 38.933,10.489 95.955,5.367 116.875,-8.711 l 7.72,-5.195 c -0.35,-0.73 -0.7,-1.453 -1.2,-2.457 z M 83.4961,482.344 H 193.496 V 382.547 H 83.4961 Z m 129.9999,0 h 110 v -99.797 h -110 z m 0,120 h 110 v -100 h -110 z m 130,-120 h 110 v -99.797 h -110 z m 0,120 h 110 v -100 h -110 z m 130,-120 h 110 v -99.797 h -110 z m 0,120 h 110 v -100 h -110 z m 0,120 h 110 v -100 h -110 z m 130,-240 h 110 v -99.797 h -110 z m 453.214,-53.938 c 1.08,2.227 2.25,4.606 3.39,6.989 0.41,0.835 0.78,1.605 1.53,3.179 l 3.78,7.891 -22.22,14.93 c -24.02,16.164 -78.788,22.257 -121.698,14.039 -5.535,40.449 -28.219,75.554 -68.023,106.574 l -23.614,15.844 -15.546,-23.477 c -20.332,-30.863 -29.856,-72.492 -26.653,-112.105 2.364,-22.719 9.395,-44.637 20.657,-61.993 -17.012,-9.488 -44.954,-17.25 -74.817,-17.644 v 119.711 h -130 v 100 20 120 h -150 v -120 h -110 -20 -130 v -120 H 63.4961 V 382.547 H 12.6289 4.17969 L 2.76563,374.164 C -1.12109,351.039 -1.07422,317.305 3.95703,282.555 10.2539,238.945 23.7305,196.27 45.0391,158.035 100.496,58.4844 201.27,0 352.629,0 c 257.539,0 454.812,118.906 546.668,342.148 31.023,-0.558 52.473,1.422 76.758,9.957 32.165,11.313 57.955,32.493 75.255,65.708 0.97,1.601 2.38,4.441 5.4,10.593"
         style="fill:#066da5;fill-opacity:1;fill-rule:nonzero;stroke:none"
         id="path122"
         inkscape:connector-curvature="0" /><path
         d="m 1859.47,312.734 c 8.6,8.586 18.63,15.368 30.09,20.34 11.46,4.973 23.72,7.457 36.79,7.457 11.82,0 22.74,-1.988 32.77,-5.965 10.03,-3.98 19.61,-9.855 28.74,-17.628 5.37,-4.34 11.46,-6.508 18.26,-6.508 8.06,0 14.73,2.715 20.01,8.133 5.29,5.425 7.92,12.207 7.92,20.343 0,8.496 -3.22,15.633 -9.67,21.418 -27.56,24.594 -60.25,36.883 -98.03,36.883 -41.54,0 -76.99,-14.824 -106.36,-44.473 -29.36,-29.648 -44.04,-65.445 -44.04,-107.394 0,-41.942 14.68,-77.735 44.04,-107.383 29.37,-29.648 64.82,-44.4726 106.36,-44.4726 37.61,0 70.28,12.2966 98.03,36.8746 5.91,5.969 8.87,12.93 8.87,20.891 0,8.133 -2.64,14.863 -7.93,20.195 -5.27,5.332 -11.94,8.008 -20.01,8.008 -6.79,-0.187 -12.7,-2.18 -17.72,-5.969 -8.96,-7.773 -18.44,-13.601 -28.47,-17.488 -10.03,-3.898 -20.95,-5.84 -32.77,-5.84 -13.07,0 -25.33,2.489 -36.79,7.461 -11.46,4.969 -21.49,11.746 -30.09,20.34 -8.59,8.586 -15.35,18.664 -20.27,30.234 -4.92,11.575 -7.39,23.957 -7.39,37.149 0,13.203 2.47,25.586 7.39,37.16 4.92,11.566 11.68,21.648 20.27,30.234 z m 466.28,56.27 c 0,3.797 -0.76,7.41 -2.28,10.848 -1.53,3.437 -3.54,6.464 -6.05,9.082 -2.5,2.625 -5.46,4.66 -8.86,6.105 -3.4,1.445 -7.08,2.168 -11.01,2.168 -5.55,0 -10.57,-1.445 -15.04,-4.336 L 2121.89,287.379 v 211.523 c 0,7.953 -2.73,14.692 -8.19,20.203 -5.46,5.512 -12.04,8.274 -19.74,8.274 -7.88,0 -14.55,-2.762 -20,-8.274 -5.47,-5.511 -8.2,-12.25 -8.2,-20.203 V 121.953 c 0,-7.773 2.73,-14.465 8.2,-20.058 5.45,-5.6059 12.12,-8.4106 20,-8.4106 7.7,0 14.28,2.8047 19.74,8.4106 5.46,5.593 8.19,12.285 8.19,20.058 v 97.899 l 32.77,21.699 124.09,-140.75 c 5.01,-4.8752 11.28,-7.3166 18.8,-7.3166 3.93,0 7.61,0.7226 11.01,2.1679 3.4,1.4454 6.36,3.4766 8.86,6.1057 2.51,2.617 4.52,5.644 6.05,9.082 1.52,3.437 2.28,7.051 2.28,10.848 0,7.414 -2.6,14.003 -7.79,19.796 l -115.49,131.25 112.54,73.762 c 7.16,4.879 10.74,12.387 10.74,22.508 z M 1680.99,208.602 c -4.93,-11.485 -11.64,-21.563 -20.15,-30.243 -8.5,-8.671 -18.49,-15.546 -29.94,-20.605 -11.47,-5.059 -23.73,-7.598 -36.8,-7.598 -13.25,0 -25.6,2.539 -37.07,7.598 -11.45,5.059 -21.4,11.883 -29.8,20.476 -8.42,8.586 -15.09,18.665 -20.01,30.235 -4.93,11.574 -7.4,23.859 -7.4,36.875 0,13.019 2.47,25.312 7.4,36.887 4.92,11.57 11.59,21.648 20.01,30.238 8.4,8.586 18.35,15.41 29.8,20.473 11.47,5.058 23.82,7.593 37.07,7.593 13.07,0 25.33,-2.535 36.8,-7.593 11.45,-5.063 21.44,-11.934 29.94,-20.61 8.51,-8.676 15.22,-18.754 20.15,-30.238 4.92,-11.477 7.39,-23.731 7.39,-36.75 0,-13.016 -2.47,-25.262 -7.39,-36.738 z m 19.47,144.132 c -29.72,29.649 -65.18,44.473 -106.36,44.473 -41.54,0 -76.99,-14.824 -106.36,-44.473 -29.36,-29.648 -44.05,-65.445 -44.05,-107.394 0,-41.942 14.69,-77.735 44.05,-107.383 29.37,-29.648 64.82,-44.4726 106.36,-44.4726 41.18,0 76.64,14.8246 106.36,44.4726 29.36,29.289 44.05,65.078 44.05,107.383 -0.18,20.976 -3.89,40.41 -11.15,58.312 -7.25,17.895 -18.21,34.258 -32.9,49.082 z m 715.55,-79.191 c 2.86,9.945 7.25,19.035 13.16,27.258 5.91,8.226 12.89,15.277 20.95,21.152 8.05,5.879 16.92,10.445 26.59,13.695 9.67,3.258 19.6,4.883 29.81,4.883 10.21,0 20.1,-1.625 29.68,-4.883 9.58,-3.25 18.35,-7.816 26.32,-13.695 7.97,-5.875 14.95,-12.926 20.95,-21.152 6,-8.223 10.51,-17.313 13.56,-27.258 z m 196.87,79.191 c -29.73,29.649 -65.17,44.473 -106.36,44.473 -41.54,0 -77,-14.824 -106.36,-44.473 -29.37,-29.648 -44.05,-65.445 -44.05,-107.394 0,-41.942 14.68,-77.735 44.05,-107.383 29.36,-29.648 64.82,-44.4726 106.36,-44.4726 37.78,0 70.55,12.2966 98.3,36.8746 5.38,5.606 8.06,12.383 8.06,20.344 0,8.133 -2.65,14.871 -7.92,20.203 -5.28,5.332 -11.95,8 -20.01,8 -6.99,-0.187 -13.16,-2.531 -18.53,-7.051 -8.42,-7.238 -17.55,-12.656 -27.4,-16.269 -9.85,-3.613 -20.68,-5.43 -32.5,-5.43 -10.39,0 -20.37,1.629 -29.95,4.883 -9.58,3.262 -18.35,7.82 -26.32,13.699 -7.96,5.871 -14.91,12.922 -20.82,21.153 -5.9,8.222 -10.38,17.304 -13.42,27.246 h 212.72 c 7.87,0 14.54,2.668 20.01,8.008 5.46,5.332 8.18,12.062 8.18,20.195 0,20.976 -3.66,40.457 -11,58.441 -7.35,17.996 -18.36,34.309 -33.04,48.953 z M 1348.2,208.602 c -4.93,-11.485 -11.64,-21.563 -20.14,-30.243 -8.51,-8.671 -18.49,-15.546 -29.95,-20.605 -11.46,-5.059 -23.73,-7.598 -36.8,-7.598 -13.24,0 -25.61,2.539 -37.06,7.598 -11.47,5.059 -21.4,11.883 -29.82,20.476 -8.41,8.586 -15.08,18.665 -20.01,30.235 -4.92,11.574 -7.38,23.859 -7.38,36.875 0,13.019 2.46,25.312 7.38,36.887 4.93,11.57 11.6,21.648 20.01,30.238 8.42,8.586 18.35,15.41 29.82,20.473 11.45,5.058 23.82,7.593 37.06,7.593 13.07,0 25.34,-2.535 36.8,-7.593 11.46,-5.063 21.44,-11.934 29.95,-20.61 8.5,-8.676 15.21,-18.754 20.14,-30.238 4.93,-11.477 7.39,-23.731 7.39,-36.75 0,-13.016 -2.46,-25.262 -7.39,-36.738 z m 35.32,318.777 c -8.06,0 -14.73,-2.668 -20.01,-8.004 -5.29,-5.332 -7.92,-12.066 -7.92,-20.199 V 363.852 c -27.22,22.238 -58.65,33.355 -94.28,33.355 -41.53,0 -76.99,-14.824 -106.36,-44.473 -29.36,-29.648 -44.04,-65.445 -44.04,-107.394 0,-41.942 14.68,-77.735 44.04,-107.383 29.37,-29.648 64.83,-44.4726 106.36,-44.4726 41.19,0 76.64,14.8246 106.37,44.4726 29.36,29.289 44.04,65.078 44.04,107.383 v 253.836 c 0,8.133 -2.73,14.867 -8.19,20.199 -5.46,5.336 -12.13,8.004 -20.01,8.004 z M 2907.53,378.227 c -5.01,4.878 -11.33,8.718 -18.94,11.523 -7.6,2.805 -15.93,4.746 -24.98,5.828 -9.04,1.086 -17.5,1.629 -25.38,1.629 -17.9,0 -34.73,-2.891 -50.49,-8.676 -15.76,-5.789 -30.35,-14.101 -43.78,-24.949 v 5.422 c 0,7.773 -2.73,14.418 -8.19,19.93 -5.47,5.519 -12.04,8.273 -19.74,8.273 -7.89,0 -14.56,-2.754 -20.01,-8.273 -5.46,-5.512 -8.2,-12.157 -8.2,-19.93 V 121.688 c 0,-7.774 2.74,-14.422 8.2,-19.93 5.45,-5.5197 12.12,-8.2736 20.01,-8.2736 7.7,0 14.27,2.7539 19.74,8.2736 5.46,5.508 8.19,12.156 8.19,19.93 V 245.34 c 0,13.203 2.47,25.586 7.39,37.16 4.92,11.566 11.64,21.648 20.14,30.234 8.51,8.586 18.49,15.368 29.95,20.34 11.46,4.973 23.73,7.457 36.79,7.457 13.25,0 25.52,-2.261 36.8,-6.781 4.48,-1.988 8.42,-2.98 11.82,-2.98 3.94,0 7.6,0.722 11.01,2.168 3.4,1.445 6.36,3.476 8.86,6.097 2.51,2.625 4.52,5.653 6.04,9.09 1.53,3.438 2.29,7.137 2.29,11.117 0,7.774 -2.51,14.102 -7.52,18.985"
         style="fill:#066da5;fill-opacity:1;fill-rule:nonzero;stroke:none"
         id="path124"
         inkscape:connector-curvature="0" /></g></g></svg>